<?xml version="1.0" encoding="utf-8"?>
<!-- Generator: Adobe Illustrator 24.3.0, SVG Export Plug-In . SVG Version: 6.00 Build 0)  -->
<svg version="1.1" id="Layer_1" xmlns="http://www.w3.org/2000/svg" xmlns:xlink="http://www.w3.org/1999/xlink" x="0px" y="0px"
	 viewBox="0 0 783.3 407" style="enable-background:new 0 0 783.3 407;" xml:space="preserve">
<style type="text/css">
	.st0{fill:#C5F4FF;}
	.st1{fill:#DF2935;}
	.st2{fill:#84C318;}
	.st3{fill:#FFFFFF;}
	.st4{stroke:#1739FF;stroke-width:7;stroke-miterlimit:10;}
	.st5{fill:#FDCA40;}
</style>
<g id="Layer_2_1_">
	<g id="Layer_1-2">
		<path class="st0" d="M133.9,232.2L120,272.9c0,0-44.9,3.4-45.7,2.9c-0.9-0.5-15.3-20.5-15.3-20.5l-13.3-47.9l17.7-35.9
			c0,0,0,0,0,0.1c-0.2,2.4-3.5,52.6,32.1,69.6c20.8,10,36.5-8.3,37.3-9.2c0,0,0,0,0,0c0,0,0,0,0,0L133.9,232.2z"/>
		<path class="st1" d="M776.7,116.3c-34.2-1.2-68.4-2.1-102.9-3.3c0.3,14.4,0.3,28.8,0.6,42.9l54.9,1.8
			c-18.3,37.8-36.9,75.9-55.5,114c0.9,13.2,2.1,26.7,3,40.2c34.5-1.2,69-2.4,103.5-3.9c-0.9-14.1-2.1-28.5-3.3-42.6l-52.5,1.8
			l54-110.7c-0.3-13.5-0.3-27-0.6-40.2L776.7,116.3z"/>
		<path class="st1" d="M620.8,155.2c-0.9,48.2-1.8,96.5-2.7,144.8c10.4-0.9,21-1.5,31.4-2.2c0.9-48.7,2-97.1,2.9-145.5
			c-10.6,0.7-21.2,1.3-31.6,2.2V155.2z"/>
		<path class="st2" d="M439.2,119.9c-27,2.6-54,5.3-81.2,7.9c1.7,11.3,3.2,22.6,4.9,33.7l43.3-4.2c-10.5,31.6-21.2,63.4-32,95.2
			c2.1,10.3,4.4,20.8,6.5,31.3c27-4.5,54-9,80.9-13.6c-2.1-11-4.6-22.2-7-33.1l-41.1,6.8l31.1-92.5c-1.6-10.6-3-21.2-4.6-31.5
			L439.2,119.9z"/>
		<path class="st2" d="M177.5,103.9c-14.5-17.8-35.9-28.3-58.8-29c-23.8-0.7-48.3,10.2-66.2,26.6c-22.3,20.3-36.3,48.2-41.4,76.3
			c-5.8,29.8-1.5,61.1,14.2,85.9c11.7,18.6,30.8,33,53.4,37c13.3,2.7,27.6,1.2,41-3.2c6.7,9.4,13.4,18.9,20.1,28.6
			c14.2-10.2,28.3-20.1,42.1-30.5c-6.1-8.6-12.2-17.6-18.7-26.3c23.3-24.4,35.8-56.7,37.6-88.2C202.3,153.3,194.8,124.8,177.5,103.9
			z M150.3,183.8c-1.1,17.4-7.2,34.1-17.6,48.1c0,0,0,0,0,0c0,0,0,0,0,0c-5.6,7.3-13,14.3-21.6,18c-10.2,4.5-22.4,3.8-30.7-2
			c-9.9-6.7-16-18.2-18.9-29.5c-2-8.2-2.8-16.6-2.3-25c0.5-7.4,2-14.8,4.2-21.8c2.5-7.7,5.9-15,10.3-21.8
			c5.8-8.3,12.9-15.7,21.7-20.8c6.1-3.3,12.7-5.2,19.3-4.6c9.1,0.8,17.4,5.5,22.8,12.8C147.8,149.9,151.3,167.3,150.3,183.8z"/>
		<path class="st3" d="M137.4,137.2c-5.4-7.4-13.7-12-22.8-12.8c-6.6-0.6-13.2,1.2-19.3,4.6c-8.8,5-15.9,12.5-21.7,20.8
			c-4.4,6.8-7.8,14.2-10.3,21.8c-0.2,2.4-3.5,52.6,32.1,69.6c20.8,10,36.5-8.3,37.3-9.2c0,0,0,0,0,0c0,0,0,0,0,0
			c10.4-14,16.5-30.7,17.6-48.1C151.3,167.3,147.8,149.9,137.4,137.2z M136.1,202.6c-4.3,14.2-16.2,23.1-26.5,19.9
			c-10.3-3.2-15.1-17.2-10.8-31.4c4.3-14.2,16.2-23.1,26.5-19.9C135.6,174.3,140.4,188.4,136.1,202.6z"/>
		<path class="st1" d="M598.5,94.2c-7.9-11.8-20.5-19.7-34.3-22.9c-9.9-2.3-20.2-2.8-30.4-1.6c-22.8,2.8-50.5,12.6-72.1,23.2
			c0,0,0.4,163.6,0.4,238.9c24.4,2.8,50.1,4.3,75.3-1.2c17.7-4.3,35.8-13,48.1-27.6c15.4-18.1,20.9-43,16.6-64.6
			c-2.3-11.9-7.9-23-16.2-31.9c14.6-14.6,22.5-35.1,24.4-54.8C612.7,131.7,609.5,110.4,598.5,94.2z M518.5,277.5v-33.9
			C558.3,232.6,554.7,279.1,518.5,277.5L518.5,277.5z M518,179v-49.7C572.1,109.2,567.3,178.2,518,179z"/>
		<path class="st2" d="M297.9,113c-11.6,1-23.3,2.2-34.9,3.5c1.2,51.7-12.1,119.5-19.1,118.7c-6.7-0.8-7.7-57.9,8.3-126.1l-34.5-2
			c-4.8,24.6-10.2,53-12.4,77.9c-1.5,15.9-2,32,0.5,47.5c1.5,9.2,4,18.6,10,25.7c6.7,8.5,17.1,13,27.9,12c10.9-1.1,21-7.4,27.6-15.9
			c7.8-9.8,12.2-21.5,15.4-33.1c6-21.3,8.2-42.8,9.9-64.3C297.7,142.3,298.1,127.7,297.9,113z"/>
		<path class="st1" d="M317.8,175.6l1.2,37.8c-15.7,26.6-32.3,52.9-38.1,81.3c-2.6,13-2,24.7,1.4,35.1c3.3,8.6,8.2,14.5,15.5,17.9
			c7.1,3.5,14.8,5.3,22.7,5.3c6.6,0.2,13.3-0.4,19.8-1.8c6.3-1.1,11.6-2.5,15.5-3.5c2.1-0.7,3.9-1.3,5.9-2l-4.1-35.3
			c-1.2,0.3-2.4,0.4-3.3,0.7c-2.1,0.4-5.1,1-8.4,1.5c-3.5,0.4-7,0.5-10.5,0.3c-3.5-0.4-6.8-1.3-10-2.7c-3-1.5-5.4-4.1-6.5-7.3
			c-1.6-4.8-0.6-11.7,2.4-21.4c3.3-10.4,7.2-20.5,11.7-30.4c4.8-10.3,9.3-19.5,13.3-27.1c3.4-6.4,5.4-11.3,5.7-11.6
			c0.3,0-0.2-37.2-0.2-37.2L317.8,175.6z M318.4,124.6l1.1,37.2l30.3-0.9l-1.1-37.2L318.4,124.6z"/>
		
			<rect x="620.1" y="103" transform="matrix(0.9995 -3.001516e-02 3.001516e-02 0.9995 -3.3642 19.1214)" class="st1" width="30.3" height="37.2"/>
		<path class="st4" d="M136.1,202.6c-4.3,14.2-16.2,23.1-26.5,19.9c-10.3-3.2-15.1-17.2-10.8-31.4c4.3-14.2,16.2-23.1,26.5-19.9
			C135.6,174.3,140.4,188.4,136.1,202.6z"/>
		
			<ellipse transform="matrix(0.1628 -0.9867 0.9867 0.1628 -70.9151 276.6555)" class="st3" cx="127.6" cy="180.1" rx="5.6" ry="3.6"/>
		
			<ellipse transform="matrix(0.1628 -0.9867 0.9867 0.1628 -123.0598 292.3072)" class="st3" cx="110.7" cy="218.7" rx="3.1" ry="2.2"/>
		<path class="st1" d="M26.7,241.9c-9.2-24.2-7.7-43.2-4.5-61.8c10-57.5,40.5-75,40.5-75s-29.5,31-29.5,83.4
			c0,72.6,36.4,99.8,36.4,99.8S41,279.6,26.7,241.9z"/>
		<path class="st5" d="M586.9,175.1c0,0,14-75.7-54.2-92c0,0,47-2.8,60,29.8S586.9,175.1,586.9,175.1z"/>
		<polygon class="st5" points="628.4,159.3 646.4,158.1 646.4,240.7 640.2,166.5 		"/>
		<polygon class="st5" points="646.8,118.5 646.4,135.1 632.6,135.1 643,130.9 		"/>
		<polygon class="st5" points="345.2,139.6 344.8,156.2 331,156.2 341.5,152 		"/>
		<polygon class="st5" points="709.8,121.6 767.1,123.6 767.1,154.1 736.3,223.9 758.4,152.3 757.5,132.4 		"/>
		<polygon class="st1" points="389.5,129.8 434.7,125.8 437.1,153.7 416.6,219.7 429.6,152.7 427.3,134.5 		"/>
		<polygon class="st5" points="331,181.6 345.2,181.6 345.2,208.2 340.3,188.6 		"/>
		<polygon class="st1" points="279.6,118.7 293.8,118.7 293.8,145.3 288.9,125.7 		"/>
		<path class="st1" d="M212.2,194.9c0,0-5.1,29.1-0.3,44c8.7,26.6,25.7,25.2,25.7,25.2s-12.7-8.3-18.5-27.8
			C214.2,219.7,212.2,194.9,212.2,194.9z"/>
		<path class="st5" d="M294.1,283.8c0,0-12.6,17.5-5.6,40s29.8,21.7,29.8,21.7s-18-7.6-22.9-23.7C290,304,294.1,283.8,294.1,283.8z"
			/>
		<polygon class="st1" points="380.5,257.3 385.1,275.8 404.8,272.4 389.5,270.2 		"/>
		<path class="st5" d="M0,149.7c0,0,18.7-101.6,108.6-106.8s101.2,44.1,101.2,44.1l122,18.9l101.5-27.4c0,0,25.2-46.7,106.9-46.7
			s110,60.2,110,60.2l133,9.7l-121-44c0,0-38.9-57.8-129.4-57.8c-77.4,0-114.6,57.5-114.6,57.5l-89,22.5L227.1,63
			c0,0-22.3-57-118.5-55.8C-4.5,8.5,0,149.7,0,149.7z"/>
		<path class="st5" d="M0,277.6c0,0,11.8,44.6,58.9,56.9s51.8,4.4,51.8,4.4l35.3,27.8l91.7-63.7c0,0,9.1,65.4,42,70.6
			s93.6-4.3,93.6-4.3l23.6-54.6h34.5v45.9c0,0,91.2,20.8,125.4,6.9s50.7-41.1,50.7-41.1h38.9l16.6,19.2h117.3l-116.4,36.7
			l-24.1-22.6l-21.6-1.7c0,0-30.5,34.7-53.1,41.6s-151.7-10.4-151.7-10.4l-8.5-36.3l-12.1,43.2c0,0-59,15.6-113.3,9.5
			s-55.6-52.8-55.6-52.8l-76.9,54.2l-42.2-34.4c0,0-35,7.8-60-7.8C0.7,337.4,0,277.6,0,277.6z"/>
	</g>
</g>
</svg>
